<?xml version="1.0" encoding="UTF-8" standalone="no"?>
<!-- Created with Inkscape (http://www.inkscape.org/) -->

<svg
   xmlns:dc="http://purl.org/dc/elements/1.1/"
   xmlns:cc="http://creativecommons.org/ns#"
   xmlns:rdf="http://www.w3.org/1999/02/22-rdf-syntax-ns#"
   xmlns:svg="http://www.w3.org/2000/svg"
   xmlns="http://www.w3.org/2000/svg"
   xmlns:xlink="http://www.w3.org/1999/xlink"
   xmlns:sodipodi="http://sodipodi.sourceforge.net/DTD/sodipodi-0.dtd"
   xmlns:inkscape="http://www.inkscape.org/namespaces/inkscape"
   width="744.09448819"
   height="1052.3622047"
   id="svg2"
   version="1.1"
   inkscape:version="0.48.4 r9939"
   sodipodi:docname="enram-manual-front.svg">
  <defs
     id="defs4" />
  <sodipodi:namedview
     id="base"
     pagecolor="#ffffff"
     bordercolor="#666666"
     borderopacity="1.0"
     inkscape:pageopacity="0.0"
     inkscape:pageshadow="2"
     inkscape:zoom="0.55366489"
     inkscape:cx="392.86931"
     inkscape:cy="377.29188"
     inkscape:document-units="px"
     inkscape:current-layer="layer1"
     showgrid="false"
     inkscape:window-width="1916"
     inkscape:window-height="1013"
     inkscape:window-x="0"
     inkscape:window-y="0"
     inkscape:window-maximized="0"
     inkscape:snap-global="true" />
  <metadata
     id="metadata7">
    <rdf:RDF>
      <cc:Work
         rdf:about="">
        <dc:format>image/svg+xml</dc:format>
        <dc:type
           rdf:resource="http://purl.org/dc/dcmitype/StillImage" />
        <dc:title></dc:title>
      </cc:Work>
    </rdf:RDF>
  </metadata>
  <g
     inkscape:label="Layer 1"
     inkscape:groupmode="layer"
     id="layer1">
    <rect
       style="fill:#ffffff;stroke:#ffffff;stroke-width:1px;stroke-linecap:butt;stroke-linejoin:miter;stroke-opacity:1"
       id="rect3243"
       width="742.65607"
       height="1052.2025"
       x="1.2771368"
       y="-3.7035898e-07" />
    <image
       sodipodi:absref="/home/wbouten/enram/doc/readme/svg/../png/esciencecenter-logo.png"
       xlink:href="../png/esciencecenter-logo.png"
       width="590.85651"
       height="110.52801"
       id="image3066"
       x="122.70803"
       y="898.65546" />
    <g
       transform="matrix(1.2315082,0,0,-1.2315082,259.48972,862.01541)"
       inkscape:label="ink_ext_XXXXXX"
       id="g3112">
      <g
         transform="scale(0.1,0.1)"
         id="g3114">
        <path
           id="path3116"
           style="fill:#231f20;fill-opacity:1;fill-rule:nonzero;stroke:none"
           d="m 0,0 279.105,0 0,279.133 L 0,279.133 0,0 z"
           inkscape:connector-curvature="0" />
        <path
           id="path3118"
           style="fill:#ffffff;fill-opacity:1;fill-rule:nonzero;stroke:none"
           d="m 74.332,194.953 c 0,0 6.8008,-0.285 11.4336,-0.305 5.7149,-0.039 10.6328,1.25 10.7578,0.5 0.2344,-1.378 0.3868,-62.46 0.3868,-62.46 0,0 0.6679,-13.04 3.8668,-19.668 5.614,-11.665 30.637,-12.622 30.637,-12.622 0,0 3.891,-0.4566 12.59,0.207 8.676,0.684 25.629,3.184 31.113,13.458 0,0 3.891,4.355 5.305,29.042 1.469,25.872 -1.992,51.485 -1.992,51.485 l 24.25,1.113 c 0,0 -1.641,-18.281 -1.684,-52.605 -0.027,-34.321 3.145,-54.4535 3.145,-54.4535 l -24.028,-7.0625 0.028,25.398 -11.434,-10.7417 c 0,0 -6.668,-6.8438 -21.758,-10.7305 -15.09,-3.8672 -26.539,-3.164 -33.39,-1.7773 -6.871,1.375 -13.039,3.2109 -16.9262,5.0468 -3.8945,1.8282 -10.75,5.2657 -16.9101,14.8947 -3.6485,5.683 -3.6485,19.902 -3.6485,19.902 l 0.2735,26.531 -2.0157,44.848"
           inkscape:connector-curvature="0" />
        <path
           id="path3120"
           style="fill:#ffffff;fill-opacity:1;fill-rule:nonzero;stroke:none"
           d="m 160.496,203.285 -53.625,53.742 11.66,11.629 53.625,-53.738 -11.66,-11.633 0,0"
           inkscape:connector-curvature="0" />
        <path
           id="path3122"
           style="fill:#ffffff;fill-opacity:1;fill-rule:nonzero;stroke:none"
           d="m 117.102,203.137 -11.633,11.66 53.754,53.633 11.632,-11.66 -53.753,-53.633 0,0"
           inkscape:connector-curvature="0" />
        <path
           id="path3124"
           style="fill:#ffffff;fill-opacity:1;fill-rule:nonzero;stroke:none"
           d="m 160.574,122.008 -53.633,53.75 11.664,11.629 53.629,-53.75 -11.66,-11.629 0,0"
           inkscape:connector-curvature="0" />
        <path
           id="path3126"
           style="fill:#ffffff;fill-opacity:1;fill-rule:nonzero;stroke:none"
           d="m 117.172,121.887 -11.629,11.66 53.75,53.609 11.629,-11.66 -53.75,-53.609 0,0"
           inkscape:connector-curvature="0" />
        <path
           id="path3128"
           style="fill:#ffffff;fill-opacity:1;fill-rule:nonzero;stroke:none"
           d="m 160.453,13.5898 -53.621,53.75 11.66,11.629 53.621,-53.75 -11.66,-11.629 0,0"
           inkscape:connector-curvature="0" />
        <path
           id="path3130"
           style="fill:#ffffff;fill-opacity:1;fill-rule:nonzero;stroke:none"
           d="m 117.051,13.4297 -11.629,11.6601 53.742,53.6329 11.633,-11.6602 -53.746,-53.6328 0,0"
           inkscape:connector-curvature="0" />
        <path
           id="path3132"
           style="fill:#231f20;fill-opacity:1;fill-rule:nonzero;stroke:none"
           d="m 1689.11,203.281 -21.42,55.215 -0.4,0 -18.33,-55.215 40.15,0 z m -42.67,-7.539 -8.5,-27.402 c -1.54,-5.027 -2.3,-9.473 -2.3,-12.559 0,-6.379 9.06,-7.722 14.29,-7.722 1.72,0 2.13,-1.157 2.13,-3.664 0,-1.934 -0.21,-2.715 -1.56,-2.715 -4.44,0 -18.53,0.976 -23.75,0.976 -5.19,0 -13.32,-0.976 -19.12,-0.976 -3.85,0 -3.85,0.586 -3.85,3.093 l 0,2.129 c 0,0.957 1.72,1.352 6.37,1.743 10.04,0.957 11.41,2.886 15.08,13.511 l 38.22,111.203 c 3.84,3.274 7.89,7.727 12.71,9.27 l 48.48,-122.219 c 3.28,-8.105 6.76,-12.156 17.95,-12.156 2.13,0 2.5,-2.316 2.5,-4.445 0,-2.129 -1.33,-2.129 -3.65,-2.129 -3.11,0 -15.45,0.976 -22.99,0.976 -7.72,0 -15.45,-0.39 -23.17,-0.976 -2.89,0 -3.08,0.586 -3.08,3.293 0,2.117 1.15,3.086 3.86,3.086 2.91,0 12.37,0.586 12.37,5.214 0,1.54 -0.78,4.637 -3.5,11.383 l -12.34,31.086 -46.15,0"
           inkscape:connector-curvature="0" />
        <path
           id="path3134"
           style="fill:#231f20;fill-opacity:1;fill-rule:nonzero;stroke:none"
           d="m 1835.77,244.055 c 4.47,0 9.1,-0.43 13.73,-0.43 3.63,0 7.38,0.43 11,0.43 2.17,0 2.6,-0.567 2.6,-1.008 l 0,-2.313 c 0,-1.007 -0.43,-1.738 -1.02,-1.738 -1.02,0 -2.6,0.293 -4.34,0.293 -8.39,0 -8.39,-4.199 -8.39,-13.594 0,-8.254 1.6,-62.355 1.6,-70.312 0,-4.043 2.03,-8.684 8.24,-8.684 5.8,0 6.5,-0.285 6.5,-1.594 0,-1.726 -0.86,-3.179 -1.29,-3.179 -7.65,0 -13.75,0.73 -19.82,0.73 -6.07,0 -12.3,-0.73 -18.52,-0.73 -1.01,0 -1.15,0.586 -1.15,1.453 l 0,1.445 c 0,1.446 1.31,1.875 7.95,1.875 2.91,0 5.51,3.477 5.51,8.535 0,15.625 -0.57,49.329 -1.17,74.075 -0.57,0.144 -0.41,0.144 -0.41,0.144 -8.11,-16.64 -18.67,-40.801 -23.6,-53.68 l -13.61,-35.722 c -0.12,-0.434 -0.57,-0.863 -1.29,-0.863 -0.7,0 -1.31,0.714 -1.74,2.738 -0.86,3.621 -2.17,7.097 -3.63,10.562 l -27.32,66.555 c -1.02,2.461 -1.88,4.18 -2.45,4.18 -0.6,0 -0.6,-2.883 -0.6,-4.481 0,-11.426 -1.72,-55.109 -1.72,-62.211 0,-6.211 0,-9.832 12.73,-9.832 0.86,0 1.02,-0.722 1.02,-2.453 0,-0.586 -0.16,-2.32 -0.74,-2.32 -2.03,0 -9.1,0.73 -16.92,0.73 -8.24,0 -16.34,-0.73 -18.38,-0.73 -0.42,0 -0.87,0.437 -0.87,1.16 l 0,2.168 c 0,1.301 1.17,1.445 2.91,1.445 11.85,0 13.59,3.621 13.59,16.211 0,7.078 2.44,60.313 2.44,65.528 0,7.667 -3.75,10.851 -16.76,10.851 -0.45,0 -0.72,0.723 -0.72,1.59 l 0,1.875 c 0,0.734 0.43,1.301 1.15,1.301 5.51,0 10.71,-0.715 16.49,-0.715 3.61,0 7.38,0.715 10.99,0.715 1.04,0 2.03,-2.317 2.76,-4.192 l 31.25,-74.785 0.7,0 33.3,78.977"
           inkscape:connector-curvature="0" />
        <path
           id="path3136"
           style="fill:#231f20;fill-opacity:1;fill-rule:nonzero;stroke:none"
           d="m 1892.39,194.59 c -10.45,6.223 -14.63,12.012 -14.63,23.281 0,18.086 14.75,28.215 34.28,28.215 5.51,0 13.32,-1.875 18.24,-4.043 l 1.02,-18.098 0,-0.722 c 0,-0.711 -1.47,-1.008 -3.5,-1.008 -1.87,0 -2.15,0.863 -2.3,2.308 -1.02,9.696 -7.95,15.926 -18.22,15.926 -9.85,0 -17.5,-6.941 -17.5,-16.211 0,-10.41 6.36,-14.461 20.82,-22.129 14.33,-7.519 26.77,-14.168 26.77,-32.254 0,-19.679 -17.81,-29.953 -35.88,-29.953 -5.93,0 -15.78,1.883 -21.27,4.192 -1.17,0.586 -1.58,2.461 -2.03,5.652 l -1.73,13.594 c 0,0.871 2.91,0.871 3.76,0.871 0.45,0 0.86,-0.285 1.16,-1.301 3.34,-10.996 10.86,-17.363 22.44,-17.363 10.12,0 19.8,8.828 19.8,18.664 0,9.402 -5.35,15.035 -12.87,19.531 l -18.36,10.848"
           inkscape:connector-curvature="0" />
        <path
           id="path3138"
           style="fill:#231f20;fill-opacity:1;fill-rule:nonzero;stroke:none"
           d="m 1998.31,157.41 c 0,-10.711 7.23,-10.711 16.19,-10.711 l 0.88,-0.722 0,-2.317 c 0,-1.734 -0.72,-1.734 -3.05,-1.734 -2.89,0 -9.96,0.73 -20.09,0.73 -7.97,0 -20.41,-0.73 -23.87,-0.73 -0.31,1.023 -0.59,1.734 -0.59,2.605 0,0.442 0.16,1.309 0.59,1.59 l 1.44,0.578 1.74,0 c 13.17,0 13.73,4.492 13.73,16.492 l 0,68.579 -0.43,6.648 -19.37,0 c -11,0 -12.76,-6.941 -15.49,-16.203 -0.27,-0.867 -0.88,-1.297 -1.74,-1.297 -2.03,0 -3.32,0.586 -3.32,1.445 0,2.461 1.74,15.918 1.74,27.344 0,0.574 2.03,0.574 4.04,0.574 4.65,-6.226 6.08,-6.226 12.31,-6.226 l 53.79,0 c 10.13,0 13.04,3.047 16.66,7.527 1.01,0 4.33,0 4.33,-1.301 0,-1.16 -2.89,-13.015 -3.18,-23.437 0,-1.578 -0.45,-4.629 -1.15,-4.629 -1.31,0 -4.63,0.726 -4.63,1.449 l -0.57,7.234 c -0.6,7.383 -4.06,7.52 -10,7.52 l -19.96,0 0,-81.008"
           inkscape:connector-curvature="0" />
        <path
           id="path3140"
           style="fill:#231f20;fill-opacity:1;fill-rule:nonzero;stroke:none"
           d="m 2061.44,229.309 c 0,9.402 -7.09,10.418 -15.47,10.418 -0.59,0 -0.59,0.722 -0.59,1.3 l 0,1.582 c 0,1.317 2.46,1.446 7.52,1.446 5.78,0 12.31,-0.715 18.38,-0.715 5.78,0 11.56,0.715 17.34,0.715 l 30.55,0 c 1.13,0 1.29,-1.301 1.29,-2.883 l 0,-17.656 c 0,-0.575 -0.29,-1.153 -1.02,-1.153 -1.17,0 -3.47,-0.148 -3.61,1.582 l -0.45,4.493 c -0.86,9.269 -7.23,10.851 -15.31,10.851 l -14.9,0 c -8.11,0 -10.73,-1.738 -10.73,-12.726 l 0,-26.18 c 0,-0.442 0.88,-1.172 1.18,-1.172 l 17.07,0.586 c 8.67,0.281 11.15,3.035 13.3,10.711 0.29,0.859 0.74,1.152 2.32,1.152 1.02,0 1.72,-0.156 1.72,-0.867 0,-3.047 -0.86,-9.699 -0.86,-14.473 0,-7.804 0.86,-12.011 0.86,-14.465 0,-0.871 -1.43,-1.738 -2.31,-1.738 -1.15,0 -2.16,0.43 -2.46,1.887 -0.72,3.902 -0.72,6.648 -1.42,8.672 -0.74,2.164 -2.48,3.183 -6.82,3.328 l -20.55,0.43 c -2.03,0 -2.03,-0.715 -2.03,-1.719 l 0,-34.442 c 0,-10.414 7.68,-10.707 17.66,-10.707 l 7.81,0 c 7.68,0 13.03,0.161 16.64,2.317 3.19,1.875 7.66,10.703 9.26,14.328 1.9,0 4.34,-0.441 4.34,-1.445 0,-0.442 -0.43,-1.594 -0.73,-2.317 l -4.04,-14.609 c -1.17,-3.914 -1.87,-3.914 -3.77,-3.914 -15.62,0 -30.96,0.73 -51.93,0.73 -4.77,0 -16.92,-0.73 -24.3,-0.73 -0.45,0 -0.86,1.453 -0.86,2.32 0,1.152 0.27,2.453 0.86,2.453 12.58,0.586 16.06,1.887 16.06,15.188 l 0,67.422"
           inkscape:connector-curvature="0" />
        <path
           id="path3142"
           style="fill:#231f20;fill-opacity:1;fill-rule:nonzero;stroke:none"
           d="m 2169.85,197.629 c 1.88,-0.149 3.62,-0.293 5.49,-0.293 11.56,0 26.04,4.051 26.04,21.121 0,12.727 -8.67,20.977 -21.41,20.977 -9.84,0 -10.12,-2.313 -10.12,-6.661 l 0,-35.144 z m -13.02,30.809 c 0,7.238 -0.3,10.851 -9.42,10.851 l -5.94,0 c -0.85,0 -1.01,1.59 -1.01,2.754 0,0.711 0.45,2.012 1.01,2.012 8.4,0 16.96,-0.43 25.34,-0.43 6.66,0 13.16,0.43 19.8,0.43 14.77,0 29.24,-9.836 29.24,-25.012 0,-13.172 -12.01,-21.992 -23.3,-23.738 l 0,-0.285 c 5.64,-1.301 11.58,-11.856 13.03,-14.168 l 15.91,-24.321 c 5.04,-7.664 8.38,-9.109 17.07,-9.551 l 0.86,-0.859 0,-2.742 c 0,-1.301 -1.01,-1.453 -1.58,-1.453 -3.05,0 -7.54,0.437 -9.71,0.437 -3.48,0 -6.93,-0.437 -10.41,-0.437 -3.32,0 -9.84,9.707 -18.37,24.883 -9.4,16.64 -14.91,25.761 -24.46,25.761 -1.13,0 -2.89,0 -5.04,-0.293 l 0,-35.453 c 0,-5.191 0,-10.125 7.23,-10.125 5.49,0 7.95,0 7.95,-1.152 0,-2.742 -0.43,-3.621 -2.62,-3.621 -7.52,0 -13.73,0.73 -19.96,0.73 -2.44,0 -18.49,-0.73 -20.53,-0.73 -0.86,0 -1.17,1.883 -1.17,3.047 0,1.297 0.59,1.582 3.48,1.726 9.98,0.442 12.6,1.887 12.6,11.864 l 0,69.875"
           inkscape:connector-curvature="0" />
        <path
           id="path3144"
           style="fill:#231f20;fill-opacity:1;fill-rule:nonzero;stroke:none"
           d="m 2274.05,162.617 c 0,-15.918 16.35,-15.918 22.7,-15.918 19.82,0 40.94,16.348 40.94,46.594 0,25.75 -13.87,38.477 -23.87,44.258 -6.94,3.035 -16.06,3.758 -22.29,3.758 -11.83,0 -17.48,-0.86 -17.48,-10.125 l 0,-68.567 z m -13.04,64.524 c 0,5.488 -1.14,11.14 -6.51,11.14 -1.72,0 -6.35,-0.574 -9.1,-0.574 -0.59,0 -0.59,2.156 -0.59,2.879 0,0.871 0,1.301 2.48,1.883 9.69,2.035 32.82,3.617 45.26,3.617 7.97,0 15.49,-0.723 22.58,-2.598 19.66,-5.363 38.04,-22.871 38.04,-49.484 0,-35.867 -29.96,-52.078 -57.44,-52.078 -13.75,0 -20.97,0.586 -28.18,0.586 -7.25,0 -14.47,-0.434 -21.72,-0.586 -0.57,0 -0.72,1.297 -0.72,2.32 0,1.008 0.72,2.453 1.31,2.453 4.62,0.586 8.37,0.867 10.99,2.61 2.17,1.445 3.6,3.765 3.6,8.386 l 0,69.446"
           inkscape:connector-curvature="0" />
        <path
           id="path3146"
           style="fill:#231f20;fill-opacity:1;fill-rule:nonzero;stroke:none"
           d="m 2406.73,188.066 -16.08,41.387 -0.29,0 -13.71,-41.387 30.08,0 z m -31.99,-5.632 -6.35,-20.547 c -1.17,-3.75 -1.74,-7.082 -1.74,-9.399 0,-4.761 6.8,-5.789 10.7,-5.789 1.29,0 1.59,-0.859 1.59,-2.734 0,-1.453 -0.14,-2.039 -1.16,-2.039 -3.32,0 -13.88,0.73 -17.79,0.73 -3.91,0 -9.98,-0.73 -14.32,-0.73 -2.89,0 -2.89,0.437 -2.89,2.32 l 0,1.594 c 0,0.715 1.31,1.015 4.77,1.301 7.52,0.718 8.53,2.168 11.29,10.125 l 28.63,83.32 c 2.89,2.461 5.94,5.793 9.55,6.953 l 36.31,-91.57 c 2.48,-6.086 5.08,-9.114 13.46,-9.114 1.6,0 1.87,-1.75 1.87,-3.332 0,-1.597 -1.01,-1.597 -2.73,-1.597 -2.31,0 -11.58,0.73 -17.23,0.73 -5.78,0 -11.56,-0.293 -17.36,-0.73 -2.15,0 -2.31,0.437 -2.31,2.469 0,1.582 0.88,2.304 2.89,2.304 2.17,0 9.26,0.442 9.26,3.914 0,1.145 -0.56,3.469 -2.6,8.535 l -9.25,23.286 -34.59,0"
           inkscape:connector-curvature="0" />
        <path
           id="path3148"
           style="fill:#231f20;fill-opacity:1;fill-rule:nonzero;stroke:none"
           d="m 2546.49,244.055 c 4.5,0 9.13,-0.43 13.75,-0.43 3.62,0 7.39,0.43 11,0.43 2.17,0 2.6,-0.567 2.6,-1.008 l 0,-2.313 c 0,-1.007 -0.43,-1.738 -1,-1.738 -1.01,0 -2.62,0.293 -4.35,0.293 -8.38,0 -8.38,-4.199 -8.38,-13.594 0,-8.254 1.58,-62.355 1.58,-70.312 0,-4.043 2.03,-8.684 8.26,-8.684 5.76,0 6.51,-0.285 6.51,-1.594 0,-1.726 -0.88,-3.179 -1.31,-3.179 -7.68,0 -13.75,0.73 -19.83,0.73 -6.07,0 -12.28,-0.73 -18.51,-0.73 -1.02,0 -1.18,0.586 -1.18,1.453 l 0,1.445 c 0,1.446 1.31,1.875 7.97,1.875 2.89,0 5.49,3.477 5.49,8.535 0,15.625 -0.56,49.329 -1.13,74.075 -0.59,0.144 -0.45,0.144 -0.45,0.144 -8.11,-16.64 -18.67,-40.801 -23.57,-53.68 l -13.6,-35.722 c -0.15,-0.434 -0.6,-0.863 -1.31,-0.863 -0.72,0 -1.29,0.714 -1.74,2.738 -0.85,3.621 -2.16,7.097 -3.61,10.562 l -27.34,66.555 c -1.02,2.461 -1.88,4.18 -2.46,4.18 -0.57,0 -0.57,-2.883 -0.57,-4.481 0,-11.426 -1.76,-55.109 -1.76,-62.211 0,-6.211 0,-9.832 12.74,-9.832 0.88,0 1.01,-0.722 1.01,-2.453 0,-0.586 -0.13,-2.32 -0.72,-2.32 -2.01,0 -9.12,0.73 -16.93,0.73 -8.25,0 -16.35,-0.73 -18.36,-0.73 -0.43,0 -0.86,0.437 -0.86,1.16 l 0,2.168 c 0,1.301 1.13,1.445 2.87,1.445 11.87,0 13.61,3.621 13.61,16.211 0,7.078 2.46,60.313 2.46,65.528 0,7.667 -3.75,10.851 -16.79,10.851 -0.41,0 -0.73,0.723 -0.73,1.59 l 0,1.875 c 0,0.734 0.45,1.301 1.18,1.301 5.48,0 10.7,-0.715 16.5,-0.715 3.59,0 7.36,0.715 10.98,0.715 1.01,0 2.03,-2.317 2.75,-4.192 l 31.25,-74.785 0.72,0 33.26,78.977"
           inkscape:connector-curvature="0" />
        <path
           id="path3150"
           style="fill:#231f20;fill-opacity:1;fill-rule:nonzero;stroke:none"
           d="m 1462.49,192.754 c 0,24.238 -16.58,48.918 -42.56,48.918 -26.69,0 -39.52,-20.93 -39.52,-45.293 0,-24.668 14.99,-50.219 41.83,-50.219 26.55,0 40.25,21.778 40.25,46.594 z m -97.51,-1.133 c 0,30.149 25.81,54.805 55.68,54.805 30.28,0 57.27,-20.774 57.27,-50.774 0,-29.011 -28,-55.117 -56.7,-55.117 -30.15,0 -56.25,19.613 -56.25,51.086"
           inkscape:connector-curvature="0" />
        <path
           id="path3152"
           style="fill:#231f20;fill-opacity:1;fill-rule:nonzero;stroke:none"
           d="m 1495.6,228.234 c 0,8.797 -1.44,10.684 -9.96,10.684 l -2.45,0 c -2.58,-0.156 -3.75,0.293 -3.75,1.16 0,1.152 0,3.606 1.6,3.606 l 59.14,0 c 4.9,0 9.82,0.718 14.85,0.718 0.87,0 2.03,-0.152 2.03,-1.308 l 0.58,-16.278 c 0,-1.015 0.14,-2.031 0.14,-3.046 0,-0.575 -1.14,-0.848 -2.59,-0.848 l -2.17,0 c -0.29,1.719 -0.57,3.457 -1.01,5.027 l -1.29,4.473 c -1.59,5.644 -5.77,6.496 -10.25,6.496 l -20.2,0 c -10.68,0 -11.69,-3.301 -11.69,-13.859 l 0,-25.379 21.36,0 c 12.4,0 15.43,3.457 15.43,11.394 1.45,0.305 2.88,0.742 3.9,0.742 0.57,0 0.87,-0.3 0.87,-1.035 0,-1.133 -0.58,-3.312 -0.58,-13.836 0,-4.191 0.58,-11.691 0.58,-14.867 0,-1.297 -1.01,-1.863 -2.61,-1.863 -1.14,0 -1.58,1.289 -2.16,3.605 -1,5.918 -3.89,11.114 -16.15,11.114 l -20.64,0 0,-37.817 c 0,-5.625 0.74,-8.648 8.09,-9.219 l 7.51,-0.585 c 0.7,0 0.98,-0.868 0.98,-1.864 0,-1.164 0,-2.883 -1.57,-2.883 -10.82,0 -15.44,0.715 -22.21,0.715 -5.92,0 -16.59,-0.715 -20.48,-0.715 -1.17,0 -1.17,1.45 -1.17,2.582 0,0.868 0.15,2.165 0.74,2.165 l 6.35,0.429 c 7.63,0.586 8.78,2.317 8.78,10.821 l 0,69.671"
           inkscape:connector-curvature="0" />
        <path
           id="path3154"
           style="fill:#231f20;fill-opacity:1;fill-rule:nonzero;stroke:none"
           d="m 374.246,256.543 c 0,15.215 -9.25,15.215 -19.851,15.215 l -0.957,0.793 0,3.262 c 0,2.117 1.347,2.304 3.46,2.304 5.012,0 17.348,-0.969 26.407,-0.969 9.621,0 19.433,0.969 29.074,0.969 l 0.582,-0.566 0,-5 -0.965,-0.793 -2.301,0 c -12.523,0 -18.117,-1.336 -18.117,-15.793 l 0,-55.856 c 0,-27.746 5.402,-49.511 38.524,-49.511 34.488,0 45.652,16.558 45.652,49.129 l 0,50.078 c 0,21.953 0,20.429 -16.945,21.953 l -0.774,1.543 0,3.664 0.582,1.152 c 3.461,0 7.321,-0.969 21.77,-0.969 8.093,0 18.301,0.969 24.468,0.969 l 0.77,-1.152 0,-4.043 -1.168,-1.164 c -14.043,0 -19.066,-0.77 -19.066,-10.391 l 0,-68.769 c 0,-35.274 -20.606,-53.172 -55.668,-53.172 -27.93,0 -55.477,9.812 -55.477,41.988 l 0,75.129"
           inkscape:connector-curvature="0" />
        <path
           id="path3156"
           style="fill:#231f20;fill-opacity:1;fill-rule:nonzero;stroke:none"
           d="m 516.621,226.504 c 0,2.891 -0.141,3.625 -0.719,4.766 -1.293,2.472 -7.656,7.648 -10.097,7.804 l -7.66,0.43 c -0.579,0 -0.719,1.445 -0.719,2.598 0,0.73 0,1.863 0.719,1.863 4.488,0 7.941,0.305 11.535,0.305 6.652,0 17.191,-0.586 19.777,-0.879 l 43.758,-52.813 c 6.629,-8.09 13.133,-15.598 23.523,-26 l 0.571,0 0,63.516 c 0,9.535 -3.465,10.98 -8.086,11.117 l -6.2,0.293 c -0.589,0 -0.875,1.445 -0.875,2.441 0,0.887 0.43,2.325 1.309,2.325 3.164,0 10.676,-0.723 17.742,-0.723 6.504,0 13.434,0.723 17.473,0.723 0.726,0 0.871,-0.586 0.871,-1.165 l 0,-2.734 c 0,-0.723 -0.301,-0.867 -1.301,-0.867 l -3.75,0 c -9.961,0 -9.961,-5.051 -9.961,-17.324 l 0,-83.575 -3.476,0 -77.946,89.051 0,-66.25 c 0,-12.414 1.746,-13.84 14.153,-14.277 0.57,0 1.008,-1.301 1.008,-2.449 0,-1.164 -0.145,-2.317 -0.575,-2.317 -2.746,0 -11.972,0.723 -18.039,0.723 -7.074,0 -10.261,-0.723 -16.879,-0.723 -0.882,0 -1.031,1.004 -1.031,2.891 0,1.289 0.149,1.875 1.899,1.875 6.035,0 12.976,1.434 12.976,8.801 l 0,70.574"
           inkscape:connector-curvature="0" />
        <path
           id="path3158"
           style="fill:#231f20;fill-opacity:1;fill-rule:nonzero;stroke:none"
           d="m 657.402,169.063 c 0,-21.067 0.434,-21.211 14.578,-21.934 l 0.735,-1.024 0,-2.738 c 0,-0.855 -2.18,-1.004 -3.473,-1.004 -2.019,0 -11.687,0.723 -17.605,0.723 -6.93,0 -14.004,-0.723 -21.5,-0.723 -0.571,0.293 -0.723,1.153 -0.723,2.61 0.152,1.851 0.434,2.156 4.609,2.156 9.965,0 10.391,2.156 10.391,13.137 l 0,68.992 c 0,8.211 -2.445,10.246 -14.566,10.246 l -0.434,0.711 -0.281,2.324 c 0.137,1.582 1.437,1.731 2.305,1.731 3.89,0 8.511,-0.723 18.32,-0.723 7.215,0 15.887,0.723 21.652,0.723 l 0.719,-1.028 0,-2.59 -0.57,-0.867 -3.899,-0.281 c -5.769,-0.43 -10.258,-1.016 -10.258,-7.66 l 0,-62.781"
           inkscape:connector-curvature="0" />
        <path
           id="path3160"
           style="fill:#231f20;fill-opacity:1;fill-rule:nonzero;stroke:none"
           d="m 692.07,234.602 c -1.586,3.886 -7.351,4.902 -11.41,4.902 l -0.859,0.711 0,3.75 1.59,0.305 c 6.066,0 14.863,-0.723 18.047,-0.723 6.632,0 13.128,0.723 19.761,0.723 l 0.43,-0.442 -0.43,-4.043 -6.777,-0.574 c -2.305,-0.137 -4.899,-1.008 -4.899,-3.156 0,-1.172 0.723,-3.047 1.293,-4.344 l 16.594,-43.313 9.399,-21.496 c 1.004,-2.156 1.148,-2.605 1.578,-2.605 0.285,0 0.715,0.605 1.289,2.305 l 20.648,54.718 c 2.301,6.2 4.039,11.551 3.895,13.282 -0.149,2.441 -0.871,3.738 -5.047,4.16 l -7.508,0.742 -0.863,0.43 0,4.468 c 5.633,0 11.25,-0.855 16.887,-0.855 4.484,0 14,0.855 15.015,0.855 l 1.149,-0.574 0,-3.308 -1.286,-1.016 -4.496,-0.293 c -2.886,-0.137 -4.043,-1.582 -6.047,-6.641 -13.718,-33.039 -17.035,-43.449 -28.003,-71.3 l -7.364,-18.758 c -0.711,-2.032 -1.004,-2.16 -2.019,-2.16 -1.309,0 -1.59,0.421 -1.875,0.996 l -38.692,93.254"
           inkscape:connector-curvature="0" />
        <path
           id="path3162"
           style="fill:#231f20;fill-opacity:1;fill-rule:nonzero;stroke:none"
           d="m 804.988,229.543 c 0,9.375 -7.074,10.391 -15.441,10.391 -0.582,0 -0.582,0.718 -0.582,1.316 l 0,1.582 c 0,1.289 2.457,1.438 7.512,1.438 5.773,0 12.261,-0.723 18.332,-0.723 5.754,0 11.546,0.723 17.32,0.723 l 30.453,0 c 1.148,0 1.297,-1.309 1.297,-2.883 l 0,-17.617 c 0,-0.575 -0.289,-1.153 -1.008,-1.153 -1.156,0 -3.457,-0.156 -3.609,1.594 l -0.434,4.461 c -0.883,9.238 -7.226,10.832 -15.297,10.832 l -14.871,0 c -8.097,0 -10.676,-1.75 -10.676,-12.707 l 0,-26.113 c 0,-0.438 0.864,-1.153 1.157,-1.153 l 17.027,0.578 c 8.652,0.282 11.121,3.028 13.285,10.672 0.281,0.852 0.723,1.164 2.293,1.164 1.035,0 1.754,-0.156 1.754,-0.89 0,-3.016 -0.867,-9.657 -0.867,-14.434 0,-7.773 0.867,-11.98 0.867,-14.414 0,-0.879 -1.449,-1.746 -2.328,-1.746 -1.145,0 -2.156,0.437 -2.445,1.883 -0.715,3.886 -0.715,6.66 -1.438,8.652 -0.73,2.168 -2.469,3.184 -6.793,3.32 L 820,194.758 c -2.016,0 -2.016,-0.735 -2.016,-1.731 l 0,-34.367 c 0,-10.379 7.657,-10.664 17.606,-10.664 l 7.801,0 c 7.644,0 12.98,0.141 16.597,2.285 3.18,1.899 7.645,10.715 9.223,14.297 1.898,0 4.348,-0.418 4.348,-1.426 0,-0.457 -0.422,-1.597 -0.727,-2.312 l -4.043,-14.578 c -1.156,-3.899 -1.879,-3.899 -3.754,-3.899 -15.582,0 -30.894,0.723 -51.812,0.723 -4.766,0 -16.895,-0.723 -24.258,-0.723 -0.434,0 -0.867,1.446 -0.867,2.317 0,1.148 0.285,2.449 0.867,2.449 12.578,0.566 16.023,1.863 16.023,15.144 l 0,67.27"
           inkscape:connector-curvature="0" />
        <path
           id="path3164"
           style="fill:#231f20;fill-opacity:1;fill-rule:nonzero;stroke:none"
           d="m 913.152,197.922 c 1.883,-0.141 3.602,-0.285 5.481,-0.285 11.558,0 25.992,4.054 25.992,21.082 0,12.707 -8.672,20.929 -21.371,20.929 -9.82,0 -10.102,-2.312 -10.102,-6.64 l 0,-35.086 z m -12.992,30.75 c 0,7.226 -0.297,10.832 -9.383,10.832 l -5.914,0 c -0.863,0 -1,1.59 -1,2.742 0,0.715 0.43,2.024 1,2.024 8.356,0 16.891,-0.442 25.258,-0.442 6.633,0 13.133,0.442 19.777,0.442 14.727,0 29.157,-9.817 29.157,-24.973 0,-13.133 -11.981,-21.942 -23.242,-23.672 l 0,-0.293 c 5.628,-1.309 11.542,-11.844 12.996,-14.148 l 15.875,-24.258 c 5.046,-7.641 8.379,-9.074 17.027,-9.516 l 0.863,-0.867 0,-2.734 c 0,-1.297 -1.015,-1.446 -1.582,-1.446 -3.019,0 -7.5,0.43 -9.668,0.43 -3.469,0 -6.929,-0.43 -10.394,-0.43 -3.313,0 -9.821,9.668 -18.332,24.825 -9.375,16.613 -14.871,25.695 -24.383,25.695 -1.168,0 -2.895,0 -5.063,-0.285 l 0,-35.379 c 0,-5.188 0,-10.09 7.219,-10.09 5.481,0 7.942,0 7.942,-1.16 0,-2.739 -0.442,-3.606 -2.598,-3.606 -7.5,0 -13.723,0.723 -19.93,0.723 -2.449,0 -18.465,-0.723 -20.492,-0.723 -0.863,0 -1.148,1.875 -1.148,3.028 0,1.289 0.574,1.582 3.472,1.738 9.957,0.437 12.543,1.863 12.543,11.836 l 0,69.707"
           inkscape:connector-curvature="0" />
        <path
           id="path3166"
           style="fill:#231f20;fill-opacity:1;fill-rule:nonzero;stroke:none"
           d="m 1005.44,194.914 c -10.397,6.199 -14.585,11.973 -14.585,23.223 0,18.035 14.725,28.14 34.205,28.14 5.49,0 13.28,-1.875 18.18,-4.031 l 1.01,-18.035 0,-0.723 c 0,-0.734 -1.44,-1.027 -3.46,-1.027 -1.88,0 -2.16,0.871 -2.3,2.316 -1.02,9.676 -7.94,15.875 -18.2,15.875 -9.81,0 -17.45,-6.91 -17.45,-16.168 0,-10.394 6.33,-14.433 20.77,-22.082 14.29,-7.488 26.71,-14.14 26.71,-32.187 0,-19.617 -17.76,-29.863 -35.79,-29.863 -5.92,0 -15.737,1.875 -21.225,4.171 -1.149,0.582 -1.586,2.45 -2.004,5.625 l -1.746,13.575 c 0,0.855 2.89,0.855 3.75,0.855 0.433,0 0.859,-0.281 1.152,-1.277 3.324,-10.988 10.823,-17.332 22.383,-17.332 10.1,0 19.77,8.797 19.77,18.609 0,9.399 -5.35,15.031 -12.85,19.504 l -18.32,10.832"
           inkscape:connector-curvature="0" />
        <path
           id="path3168"
           style="fill:#231f20;fill-opacity:1;fill-rule:nonzero;stroke:none"
           d="m 1090.63,169.063 c 0,-21.067 0.43,-21.211 14.58,-21.934 l 0.73,-1.024 0,-2.738 c 0,-0.855 -2.17,-1.004 -3.49,-1.004 -2,0 -11.68,0.723 -17.6,0.723 -6.93,0 -13.99,-0.723 -21.5,-0.723 -0.57,0.293 -0.72,1.153 -0.72,2.61 0.15,1.851 0.43,2.156 4.61,2.156 9.98,0 10.4,2.156 10.4,13.137 l 0,68.992 c 0,8.211 -2.45,10.246 -14.58,10.246 l -0.43,0.711 -0.29,2.324 c 0.15,1.582 1.45,1.731 2.31,1.731 3.9,0 8.51,-0.723 18.33,-0.723 7.22,0 15.88,0.723 21.66,0.723 l 0.72,-1.028 0,-2.59 -0.57,-0.867 -3.92,-0.281 c -5.77,-0.43 -10.24,-1.016 -10.24,-7.66 l 0,-62.781"
           inkscape:connector-curvature="0" />
        <path
           id="path3170"
           style="fill:#231f20;fill-opacity:1;fill-rule:nonzero;stroke:none"
           d="m 1167.29,157.793 c 0,-10.664 7.22,-10.664 16.17,-10.664 l 0.87,-0.731 0,-2.304 c 0,-1.731 -0.72,-1.731 -3.05,-1.731 -2.88,0 -9.95,0.723 -20.05,0.723 -7.93,0 -20.34,-0.723 -23.82,-0.723 -0.29,1.004 -0.58,1.731 -0.58,2.61 0,0.418 0.15,1.289 0.58,1.57 l 1.46,0.586 1.73,0 c 13.13,0 13.71,4.465 13.71,16.445 l 0,68.418 -0.43,6.641 -19.34,0 c -10.98,0 -12.72,-6.922 -15.45,-16.172 -0.29,-0.859 -0.87,-1.289 -1.73,-1.289 -2.02,0 -3.34,0.586 -3.34,1.445 0,2.442 1.75,15.871 1.75,27.278 0,0.574 2.02,0.574 4.03,0.574 4.62,-6.199 6.07,-6.199 12.28,-6.199 l 53.69,0 c 10.11,0 12.99,3.035 16.6,7.5 1,0 4.32,0 4.32,-1.301 0,-1.153 -2.88,-13 -3.18,-23.387 0,-1.582 -0.43,-4.621 -1.14,-4.621 -1.3,0 -4.62,0.734 -4.62,1.465 l -0.58,7.207 c -0.57,7.355 -4.04,7.5 -9.94,7.5 l -19.94,0 0,-80.84"
           inkscape:connector-curvature="0" />
        <path
           id="path3172"
           style="fill:#231f20;fill-opacity:1;fill-rule:nonzero;stroke:none"
           d="m 1256.17,188.254 c 0,1.461 -0.14,3.348 -1.73,5.672 l -32.56,44.043 c -0.88,1.308 -2.18,2.031 -5.54,2.168 l -5.51,0.312 -0.87,0.422 0,3.777 0.87,0.442 1.75,-0.012 c 2.46,0 18.02,-0.711 20.77,-0.711 3.64,0 9.47,0.711 14.25,0.723 3.19,0 4.65,0 4.65,-0.879 l 0,-1.75 c 0,-1.445 -0.44,-2.168 -0.88,-2.168 L 1242.95,240 c -2.05,0 -3.35,-0.867 -3.35,-2.473 0,-0.574 0.86,-2.039 2.34,-3.902 l 20.77,-28.945 c 1.16,-1.602 2.47,-3.047 3.93,-4.356 2.76,2.617 15.56,20.215 21.81,29.356 2.32,3.347 3.63,6.101 3.63,7.273 0,2.024 -1.16,2.902 -5.38,3.047 l -7.28,0.293 c 0.16,0 0,2.168 0,2.754 0,0.73 0.16,1.601 0.88,2.031 5.67,-0.574 12.64,-0.711 18.89,-0.711 4.23,0 10.61,0.711 12.5,0.723 l 0.88,-0.586 0,-3.34 -0.58,-0.586 -5.38,-0.285 c -4.65,-0.293 -10.47,-10.176 -13.23,-13.953 l -24.11,-33 0,-34.152 c 0,-3.055 0.13,-5.672 0.43,-6.54 1.16,-3.476 4.93,-5.39 10.32,-5.39 l 3.92,0 1.3,-0.578 0,-4.063 -0.72,-0.144 -2.19,0 c -6.4,0 -12.63,0.73 -19.04,0.73 -6.53,0 -13.23,-0.73 -19.75,-0.73 l -2.05,0 -1.16,0.3 0,2.469 c 0,0.852 0.28,1.887 1.45,2.016 l 6.83,0.75 c 4.22,0.422 7.56,1.863 7.56,9.133 l 0,31.113"
           inkscape:connector-curvature="0" />
      </g>
    </g>
    <rect
       style="fill:none"
       id="rect4013"
       width="276.34045"
       height="303.43265"
       x="249.24825"
       y="275.71912" />
  </g>
</svg>
